<?xml version="1.0" encoding="UTF-8" standalone="no"?>
<!-- Created with Inkscape (http://www.inkscape.org/) -->

<svg
   xmlns:dc="http://purl.org/dc/elements/1.1/"
   xmlns:cc="http://creativecommons.org/ns#"
   xmlns:rdf="http://www.w3.org/1999/02/22-rdf-syntax-ns#"
   xmlns:svg="http://www.w3.org/2000/svg"
   xmlns="http://www.w3.org/2000/svg"
   xmlns:sodipodi="http://sodipodi.sourceforge.net/DTD/sodipodi-0.dtd"
   xmlns:inkscape="http://www.inkscape.org/namespaces/inkscape"
   width="128"
   height="128"
   id="svg2"
   version="1.1"
   inkscape:version="0.48.5 r10040"
   inkscape:export-filename="/home/snake/workspace/rust/database-monitor/public/images/logo.png"
   inkscape:export-xdpi="11"
   inkscape:export-ydpi="11"
   sodipodi:docname="icon.svg">
  <defs
     id="defs4" />
  <sodipodi:namedview
     id="base"
     pagecolor="#000000"
     bordercolor="#666666"
     borderopacity="1.0"
     inkscape:pageopacity="0"
     inkscape:pageshadow="2"
     inkscape:zoom="3.959798"
     inkscape:cx="70.068844"
     inkscape:cy="63.109953"
     inkscape:document-units="px"
     inkscape:current-layer="layer2"
     showgrid="true"
     inkscape:window-width="1916"
     inkscape:window-height="1054"
     inkscape:window-x="0"
     inkscape:window-y="22"
     inkscape:window-maximized="0">
    <inkscape:grid
       type="xygrid"
       id="grid2985"
       empspacing="5"
       visible="true"
       enabled="true"
       snapvisiblegridlinesonly="true"
       spacingx="8px"
       spacingy="8px" />
  </sodipodi:namedview>
  <metadata
     id="metadata7">
    <rdf:RDF>
      <cc:Work
         rdf:about="">
        <dc:format>image/svg+xml</dc:format>
        <dc:type
           rdf:resource="http://purl.org/dc/dcmitype/StillImage" />
        <dc:title />
      </cc:Work>
    </rdf:RDF>
  </metadata>
  <g
     inkscape:groupmode="layer"
     id="layer3"
     inkscape:label="background"
     sodipodi:insensitive="true">
    <rect
       style="fill:#000000;fill-opacity:1;stroke:none;display:inline"
       id="rect3811"
       width="128"
       height="128"
       x="0"
       y="0"
       ry="16"
       rx="16" />
  </g>
  <g
     inkscape:groupmode="layer"
     id="layer2"
     inkscape:label="lens"
     style="display:inline;opacity:1">
    <g
       id="g2993">
      <g
         id="g3824">
        <path
           style="fill:#ffffff;fill-opacity:1;stroke:none"
           d="m 80,24 c -7.433096,-0.04749 -14.770032,3.610661 -19.198732,9.584081 -1.839138,2.442911 -3.199559,5.243222 -3.988768,8.197169 2.583333,0.6875 5.166667,1.375 7.75,2.0625 C 66.024448,38.219941 70.787663,33.622937 76.470652,32.39181 77.627629,32.130243 78.813911,31.999781 80,32 c 0,-2.666667 0,-5.333333 0,-8 z"
           id="path3801"
           inkscape:connector-curvature="0" />
        <path
           sodipodi:type="arc"
           style="fill:#ffffff;fill-opacity:1;stroke:none"
           id="path3806"
           sodipodi:cx="92"
           sodipodi:cy="68"
           sodipodi:rx="4"
           sodipodi:ry="4"
           d="m 96,68 a 4,4 0 1 1 -8,0 4,4 0 1 1 8,0 z" />
        <path
           sodipodi:type="arc"
           style="fill:#ffffff;fill-opacity:1;stroke:none"
           id="path3808"
           sodipodi:cx="76"
           sodipodi:cy="44"
           sodipodi:rx="4"
           sodipodi:ry="4"
           d="m 80,44 a 4,4 0 1 1 -8,0 4,4 0 1 1 8,0 z" />
      </g>
      <g
         id="g3819">
        <path
           style="fill:#ffffff;fill-opacity:1;stroke:none;display:inline"
           d="M 80 8 C 57.90861 8 40 25.90861 40 48 C 40 70.09139 57.90861 88 80 88 C 102.09139 88 120 70.09139 120 48 C 120 25.90861 102.09139 8 80 8 z M 80 16 C 97.673112 16 112 30.326888 112 48 C 112 65.673112 97.673112 80 80 80 C 62.326888 80 48 65.673112 48 48 C 48 30.326888 62.326888 16 80 16 z "
           id="path2998" />
        <rect
           style="fill:#ffffff;fill-opacity:1;stroke:none"
           id="rect3815"
           width="11.313707"
           height="11.313708"
           x="84.852814"
           y="16.970554"
           transform="matrix(0.70710672,0.70710685,-0.70710672,0.70710685,0,0)" />
        <rect
           style="fill:#ffffff;fill-opacity:1;stroke:none"
           id="rect3817"
           width="16"
           height="48"
           x="82.509666"
           y="21.254833"
           transform="matrix(0.70710678,0.70710678,-0.70710678,0.70710678,0,0)"
           rx="8"
           ry="8" />
      </g>
    </g>
  </g>
</svg>
